<svg width="30" height="31" viewBox="0 0 30 31" fill="none" xmlns="http://www.w3.org/2000/svg">
<rect y="0.5" width="30" height="30" rx="15" fill="#6A00D3"/>
<path d="M15.1467 14.4642C15.055 14.455 14.945 14.455 14.8442 14.4642C12.6625 14.3909 10.93 12.6034 10.93 10.4034C10.93 8.15754 12.745 6.33337 15 6.33337C17.2458 6.33337 19.07 8.15754 19.07 10.4034C19.0608 12.6034 17.3283 14.3909 15.1467 14.4642Z" fill="white"/>
<path d="M10.5633 17.8466C8.34501 19.3316 8.34501 21.7516 10.5633 23.2275C13.0842 24.9141 17.2183 24.9141 19.7392 23.2275C21.9575 21.7425 21.9575 19.3225 19.7392 17.8466C17.2275 16.1691 13.0933 16.1691 10.5633 17.8466Z" fill="white"/>
</svg>
