<svg width="22" height="23" viewBox="0 0 22 23" fill="none" xmlns="http://www.w3.org/2000/svg">
<path d="M11.1467 10.4642C11.055 10.455 10.945 10.455 10.8442 10.4642C8.66249 10.3909 6.92999 8.60337 6.92999 6.40337C6.92999 4.15754 8.74499 2.33337 11 2.33337C13.2458 2.33337 15.07 4.15754 15.07 6.40337C15.0608 8.60337 13.3283 10.3909 11.1467 10.4642Z" fill="white"/>
<path d="M6.56335 13.8466C4.34501 15.3316 4.34501 17.7516 6.56335 19.2275C9.08418 20.9141 13.2183 20.9141 15.7392 19.2275C17.9575 17.7425 17.9575 15.3225 15.7392 13.8466C13.2275 12.1691 9.09335 12.1691 6.56335 13.8466Z" fill="white"/>
</svg>
